<?xml version="1.0" standalone="no"?>
<!DOCTYPE svg PUBLIC "-//W3C//DTD SVG 20010904//EN"
 "http://www.w3.org/TR/2001/REC-SVG-20010904/DTD/svg10.dtd">
<svg version="1.0" xmlns="http://www.w3.org/2000/svg"
 width="800.000000pt" height="600.000000pt" viewBox="0 0 800.000000 600.000000"
 preserveAspectRatio="xMidYMid meet">

<g transform="translate(0.000000,600.000000) scale(0.100000,-0.100000)"
fill="#000000" stroke="none">
<path d="M5205 5310 c5 -8 1 -18 -10 -27 -11 -7 -13 -13 -7 -13 10 0 10 -5 1
-22 -9 -17 -8 -24 5 -34 12 -8 14 -14 6 -19 -7 -4 -9 -20 -5 -44 15 -78 17
-121 7 -121 -6 0 -4 -13 4 -30 9 -16 17 -30 19 -30 2 0 3 77 2 172 -2 136 -5
172 -16 176 -9 3 -11 0 -6 -8z m0 -80 c3 -5 1 -10 -4 -10 -6 0 -11 5 -11 10 0
6 2 10 4 10 3 0 8 -4 11 -10z"/>
<path d="M4293 4825 c-10 -11 -10 -14 0 -18 9 -3 9 -9 -1 -26 -10 -17 -10 -21
2 -21 8 0 18 -10 22 -22 6 -21 7 -21 14 -4 5 16 8 17 21 4 8 -8 22 -17 32 -21
9 -3 17 -13 17 -21 0 -7 6 -16 14 -19 11 -4 13 -19 9 -61 -3 -40 -1 -56 7 -56
7 0 10 -8 7 -20 -3 -11 -1 -23 4 -26 14 -8 11 -24 -5 -24 -8 0 -16 -6 -19 -12
-3 -10 -9 -8 -24 5 -11 9 -23 14 -26 11 -4 -4 -9 1 -13 10 -3 9 -13 16 -21 16
-8 0 -11 -5 -7 -12 5 -7 3 -8 -6 -3 -10 6 -9 11 5 22 11 7 14 13 8 13 -6 0
-11 16 -11 36 0 28 3 34 17 30 12 -5 11 -2 -3 9 -11 8 -23 15 -27 15 -9 0 -18
-112 -11 -125 15 -24 10 -36 -11 -30 -12 4 19 -15 68 -41 50 -25 106 -55 125
-65 19 -11 38 -19 41 -19 4 0 8 77 9 172 0 95 3 174 5 177 3 2 5 -74 5 -170 0
-96 4 -169 8 -163 4 7 6 89 4 183 l-3 171 -91 46 c-49 25 -97 43 -105 40 -9
-4 -11 -2 -7 6 5 7 -2 9 -22 5 -16 -3 -23 -4 -16 -1 13 6 17 24 5 24 -5 -1
-13 -7 -20 -15z m52 -356 c-4 -5 -12 -9 -18 -8 -9 0 -8 2 1 6 6 2 9 10 6 15
-4 7 -2 8 5 4 6 -4 9 -12 6 -17z"/>
<path d="M4171 4784 c0 -11 3 -14 6 -6 3 7 2 16 -1 19 -3 4 -6 -2 -5 -13z"/>
<path d="M4172 4690 c0 -14 2 -19 5 -12 2 6 2 18 0 25 -3 6 -5 1 -5 -13z"/>
<path d="M4352 4668 c2 -6 10 -13 16 -14 7 -1 8 0 2 3 -5 2 -8 9 -4 14 3 5 0
9 -6 9 -7 0 -10 -5 -8 -12z"/>
<path d="M5031 4607 c-5 -7 -10 -89 -10 -187 l-1 -175 173 -88 c107 -54 181
-85 191 -81 14 5 16 29 16 188 l0 182 -92 44 c-51 24 -132 62 -180 86 -65 32
-89 40 -97 31z m165 -143 c56 -33 74 -59 74 -105 0 -20 7 -42 15 -49 18 -15
20 -51 3 -47 -8 1 -15 -14 -18 -38 -6 -50 -24 -54 -87 -20 -61 33 -73 50 -73
96 0 20 -7 42 -15 49 -8 7 -15 23 -15 36 0 15 6 24 15 24 10 0 15 10 15 33 0
56 18 60 86 21z"/>
<path d="M5161 4413 c-1 -17 -6 -35 -12 -38 -6 -4 -7 -14 -3 -24 4 -9 10 -34
13 -56 4 -29 13 -43 31 -52 23 -12 25 -10 36 27 18 60 -11 168 -41 156 -8 -3
-16 0 -19 7 -2 7 -5 -2 -5 -20z"/>
<path d="M4370 4558 c0 -9 7 -19 16 -22 15 -6 15 -4 3 11 -7 10 -15 20 -16 22
-2 2 -3 -3 -3 -11z"/>
<path d="M4102 4277 c-21 -12 -18 -15 59 -52 45 -22 86 -39 91 -37 4 1 8 -3 8
-9 0 -6 7 -8 16 -5 8 3 13 2 10 -2 -7 -11 183 -104 196 -96 6 4 8 3 5 -3 -6
-10 63 -48 348 -191 83 -41 162 -86 178 -100 l27 -26 0 -318 c0 -175 3 -318 8
-318 4 0 15 7 25 14 16 12 17 40 17 333 0 319 0 320 -22 339 -36 32 -167 96
-180 88 -6 -4 -8 -3 -5 2 7 12 -545 296 -564 291 -8 -2 -10 -2 -5 1 8 4 -136
85 -171 96 -10 3 -28 0 -41 -7z m959 -484 c13 -16 12 -17 -3 -4 -17 13 -22 21
-14 21 2 0 10 -8 17 -17z m-10 -20 c13 -16 12 -17 -3 -4 -17 13 -22 21 -14 21
2 0 10 -8 17 -17z"/>
<path d="M3469 4093 c-1 -104 -1 -191 0 -195 2 -15 -17 -7 -96 41 -66 40 -92
50 -146 55 -78 9 -93 3 -72 -26 15 -23 11 -67 -9 -80 -6 -4 -22 -8 -35 -8 -18
0 -22 4 -16 18 5 9 10 31 13 49 4 30 2 32 -37 43 -38 10 -46 8 -102 -21 -73
-39 -82 -53 -102 -144 -13 -56 -14 -88 -6 -155 9 -76 8 -86 -8 -97 -12 -10
-19 -10 -24 -2 -9 15 -61 -2 -68 -22 -3 -12 -1 -12 14 1 17 13 18 13 13 -1 -5
-13 -2 -16 12 -12 10 3 21 0 24 -6 4 -6 18 -11 30 -11 21 0 24 -6 30 -66 8
-80 0 -128 -31 -176 l-23 -38 25 0 c23 0 25 -4 25 -44 0 -26 5 -46 13 -49 7
-3 4 -6 -6 -6 -10 -1 -42 -12 -70 -25 -29 -13 -68 -28 -88 -35 -45 -14 -49
-26 -49 -152 0 -91 11 -147 34 -177 28 -36 72 -72 107 -88 34 -15 39 -21 39
-50 0 -28 -4 -35 -27 -40 -16 -4 -59 -20 -97 -36 -38 -15 -70 -28 -72 -28 -2
0 -4 34 -4 75 0 71 -1 75 -22 75 -48 1 -108 79 -108 140 0 62 60 139 108 140
22 0 23 3 20 67 l-3 67 -75 37 -75 36 -5 -359 -5 -360 -55 -29 c-30 -16 -54
-34 -53 -39 2 -5 -3 -7 -10 -5 -15 5 -132 -76 -132 -92 0 -6 -4 -15 -9 -20 -5
-5 -6 -3 -2 5 4 6 3 12 -3 12 -16 0 -192 -180 -186 -189 3 -5 -1 -11 -8 -14
-25 -9 -95 -160 -111 -239 -19 -94 -23 -420 -6 -494 19 -77 85 -203 144 -275
116 -140 299 -270 521 -371 603 -275 1443 -348 2207 -194 699 142 1203 481
1278 862 8 39 10 134 8 274 -4 210 -4 217 -33 285 -28 70 -87 169 -108 182 -6
4 -7 1 -2 -7 5 -8 4 -11 -3 -6 -6 4 -9 12 -6 19 7 18 -141 161 -157 152 -8 -5
-10 -4 -5 3 4 7 -9 23 -33 39 l-40 28 -1 163 c0 89 -2 162 -4 162 -6 0 -90
-40 -106 -50 -8 -6 -27 -14 -42 -20 -27 -9 -28 -13 -28 -75 0 -36 -2 -65 -5
-65 -3 0 -33 14 -67 31 l-61 31 -78 -39 c-43 -21 -78 -41 -78 -44 -1 -10 50
-29 61 -23 6 4 8 2 5 -3 -8 -13 20 -26 35 -16 7 3 8 1 4 -5 -3 -6 3 -16 14
-22 11 -6 20 -7 20 -3 0 4 4 3 8 -3 8 -12 128 -94 137 -94 3 0 3 6 -1 13 -4 6
-4 9 0 5 4 -3 7 -91 7 -195 -1 -159 1 -192 15 -211 36 -52 113 -50 145 2 14
24 19 50 19 112 0 64 3 81 15 81 8 0 12 -4 9 -9 -3 -5 9 -32 28 -61 18 -28 33
-54 34 -57 0 -3 8 -29 17 -59 9 -30 17 -66 17 -80 0 -15 3 -21 8 -14 4 6 7
-15 7 -47 0 -32 -3 -53 -7 -47 -4 7 -8 -1 -8 -17 0 -41 -30 -134 -57 -178 -13
-21 -23 -42 -23 -48 0 -5 -5 -10 -11 -10 -6 0 -8 -7 -5 -16 3 -8 2 -13 -3 -10
-5 3 -17 -7 -27 -22 -10 -15 -39 -47 -66 -71 -35 -33 -45 -47 -36 -54 10 -6 9
-7 -2 -4 -8 2 -22 -1 -30 -8 -43 -35 -184 -125 -250 -159 -41 -21 -82 -45 -91
-52 -9 -8 -18 -12 -21 -9 -3 3 -41 -8 -84 -26 -207 -84 -485 -146 -794 -180
-58 -6 -211 -11 -340 -11 -318 0 -573 29 -835 96 -55 14 -109 23 -120 20 -13
-3 -16 -2 -8 3 9 6 -11 17 -60 32 -39 13 -123 45 -186 72 -63 27 -119 45 -124
42 -6 -3 -7 -2 -4 3 8 13 -100 77 -115 68 -6 -4 -8 -3 -5 3 4 6 -17 25 -46 43
-88 56 -247 225 -284 300 -52 108 -65 166 -61 289 2 60 6 104 9 99 4 -6 13 10
22 35 8 25 34 73 56 107 23 34 38 67 34 73 -3 7 -2 9 2 4 12 -10 66 43 58 57
-3 6 -3 8 2 4 11 -11 36 12 28 25 -3 5 -2 8 3 5 5 -3 25 8 44 24 19 17 27 28
17 24 -11 -3 -16 -2 -12 5 4 6 13 8 20 5 7 -2 28 6 46 20 18 13 37 24 41 24 4
0 8 -29 8 -64 0 -76 18 -104 70 -112 28 -5 40 -1 63 20 26 25 27 27 27 140 l0
116 43 20 c23 12 68 32 100 45 l57 24 0 -39 c0 -34 -4 -42 -30 -55 -39 -20
-50 -50 -50 -129 0 -34 -5 -67 -11 -73 -7 -7 -5 -15 6 -27 10 -9 15 -25 12
-36 -3 -12 0 -17 8 -13 15 5 58 -20 97 -58 19 -18 41 -28 76 -32 28 -3 76 -20
108 -36 31 -17 63 -31 71 -31 9 0 13 -6 10 -14 -4 -10 -1 -13 9 -9 7 3 14 0
14 -7 0 -6 5 -8 10 -5 6 3 10 2 10 -4 0 -6 7 -8 15 -5 8 3 24 -1 37 -10 12 -9
35 -16 50 -16 29 0 507 237 546 271 22 19 23 26 20 109 -2 70 0 90 12 98 8 5
24 40 34 78 10 38 23 74 27 80 11 14 -1 25 -130 113 -60 41 -98 73 -90 75 85
28 218 68 232 69 9 1 17 3 17 5 0 2 -19 27 -42 56 -23 28 -43 53 -45 55 -2 3
-36 -3 -76 -12 -122 -27 -106 -34 -200 91 -70 92 -86 121 -91 160 -4 26 -11
67 -16 92 -5 25 -11 61 -15 81 -5 33 -10 38 -49 51 -33 11 -59 12 -119 5 -47
-6 -92 -7 -119 -1 -43 9 -43 10 -40 49 5 90 11 105 40 105 24 1 31 9 60 74 19
40 44 86 57 101 20 25 25 28 39 16 9 -7 16 -28 17 -45 0 -28 1 -29 12 -12 7
10 31 44 55 75 38 50 42 60 37 93 -4 21 -5 38 -3 38 1 0 123 -60 271 -133
l267 -133 0 221 0 221 -129 64 c-71 36 -127 69 -124 74 4 5 1 6 -5 3 -15 -10
-43 3 -35 16 3 6 1 7 -5 3 -7 -4 -61 18 -120 49 -60 30 -112 55 -115 55 -4 0
-8 -84 -8 -187z m145 46 c63 -30 86 -47 86 -60 0 -11 -2 -19 -5 -19 -3 0 -43
19 -89 42 -62 31 -84 47 -83 60 1 10 2 18 3 18 1 0 41 -19 88 -41z m6 -54 c47
-24 79 -44 72 -44 -7 -1 -44 15 -82 34 -38 19 -73 35 -77 34 -5 0 32 -20 81
-45 48 -25 86 -47 83 -50 -2 -3 -43 14 -90 37 -63 31 -85 48 -84 61 1 10 4 18
7 17 3 0 43 -20 90 -44z m190 5 c8 -5 11 -10 5 -10 -5 0 -17 5 -25 10 -8 5
-10 10 -5 10 6 0 17 -5 25 -10z m-196 -53 c48 -25 81 -49 82 -59 3 -22 -15
-23 -44 -2 -13 9 -25 14 -28 12 -2 -3 14 -15 36 -27 41 -23 53 -38 23 -27 -15
5 -15 4 1 -9 23 -17 5 -20 -25 -5 -10 6 -19 8 -19 6 0 -3 13 -12 28 -20 16 -8
29 -22 29 -30 0 -20 -11 -20 -45 -1 -54 29 -112 55 -112 50 0 -2 36 -23 80
-45 44 -22 80 -43 80 -46 0 -3 -8 -3 -17 0 -15 5 -14 3 2 -10 19 -16 19 -16
-5 -9 -14 4 -51 21 -82 36 -32 16 -61 29 -65 28 -4 0 32 -20 81 -45 48 -25 86
-47 83 -50 -2 -3 -43 14 -90 37 -63 32 -85 47 -84 61 1 10 6 17 12 14 34 -14
45 -14 19 0 -30 16 -32 19 -31 76 1 48 4 58 16 53 14 -4 14 -3 0 7 -15 12 -22
48 -10 48 3 -1 42 -20 85 -43z m245 -17 c74 -37 106 -60 83 -60 -12 0 -163 78
-176 91 -21 20 18 7 93 -31z m-68 -6 c28 -14 49 -28 46 -30 -3 -3 -23 4 -46
15 -51 27 -67 27 -21 0 29 -17 31 -19 10 -15 -24 5 -24 4 -6 -9 23 -17 40 -20
31 -5 -3 6 -3 10 2 10 16 0 30 -15 30 -32 0 -14 -8 -13 -53 10 -28 15 -48 29
-43 30 5 2 6 9 2 15 -9 14 -13 37 -7 37 3 0 27 -12 55 -26z m120 -60 c28 -14
49 -28 46 -30 -5 -6 -107 43 -107 51 0 9 10 5 61 -21z m-86 -42 c-15 -3 -15
-5 2 -18 13 -11 8 -10 -17 2 -43 20 -53 29 -22 20 35 -11 26 2 -18 24 -22 11
-40 23 -40 25 0 3 25 -8 56 -23 34 -16 49 -28 39 -30z m91 11 c30 -14 52 -28
50 -30 -2 -3 -18 3 -35 11 -16 9 -34 16 -38 16 -4 -1 12 -12 37 -25 25 -13 38
-24 30 -25 -8 0 -30 9 -48 20 -18 11 -38 20 -45 20 -6 -1 14 -14 46 -31 31
-16 57 -32 57 -35 0 -2 -9 0 -19 6 -11 5 -26 10 -33 10 -7 -1 -1 -8 15 -16 43
-23 31 -27 -14 -4 -58 30 -61 17 -2 -15 26 -14 37 -23 24 -19 -17 4 -21 3 -16
-6 5 -9 1 -10 -16 -6 -24 7 -24 7 1 -8 27 -17 55 -22 30 -6 -13 8 -13 10 2 10
11 0 16 -7 15 -20 -1 -11 -4 -20 -7 -20 -14 0 -83 49 -70 50 12 0 10 4 -4 15
-13 10 -15 15 -6 15 9 0 7 5 -6 15 -14 11 -15 14 -4 15 13 0 13 2 0 11 -13 9
-12 10 3 5 54 -19 53 -18 33 -2 -11 9 -25 16 -32 16 -7 0 -12 9 -11 20 1 15 6
19 22 15 15 -5 14 -2 -5 9 -41 25 -13 18 46 -11z m-161 7 c3 -6 -1 -7 -9 -4
-18 7 -21 14 -7 14 6 0 13 -4 16 -10z m81 -68 c-2 -2 -22 6 -45 17 -47 24 -55
26 -45 9 4 -7 3 -9 -1 -5 -5 4 -10 14 -11 22 -1 10 13 7 52 -13 29 -14 52 -28
50 -30z m-81 -30 c-3 -3 -11 0 -18 7 -9 10 -8 11 6 5 10 -3 15 -9 12 -12z m64
-28 c14 -12 -19 -1 -35 12 -18 14 -18 14 6 3 14 -6 27 -13 29 -15z m-19 -20
c0 -2 -13 2 -30 11 -16 9 -30 18 -30 21 0 2 14 -2 30 -11 17 -9 30 -18 30 -21z
m-40 1 c17 -9 30 -18 30 -21 0 -4 -59 23 -69 32 -10 9 13 3 39 -11z m40 -51
c0 -2 -9 0 -20 6 -11 6 -20 13 -20 16 0 2 9 0 20 -6 11 -6 20 -13 20 -16z m25
16 c3 -6 -1 -7 -9 -4 -18 7 -21 14 -7 14 6 0 13 -4 16 -10z m50 0 c3 -6 -1 -7
-9 -4 -18 7 -21 14 -7 14 6 0 13 -4 16 -10z m59 -1 c14 -7 24 -19 23 -30 -1
-14 -5 -15 -19 -8 -10 6 -16 14 -13 19 3 5 -3 13 -12 19 -24 14 -10 14 21 0z
m-4 -49 c19 -11 31 -19 25 -19 -5 0 -26 8 -45 19 -19 11 -30 19 -25 19 6 0 26
-8 45 -19z m-40 -5 c14 -8 21 -14 15 -14 -5 0 -21 6 -35 14 -14 8 -20 14 -15
14 6 0 21 -6 35 -14z m55 -33 c-3 -3 -11 0 -18 7 -9 10 -8 11 6 5 10 -3 15 -9
12 -12z m-900 -582 c3 -6 -1 -7 -9 -4 -18 7 -21 14 -7 14 6 0 13 -4 16 -10z
m203 -160 c31 -19 39 -41 26 -74 -11 -28 -26 -18 -19 13 9 41 -30 65 -96 59
-27 -3 -49 -2 -49 3 0 25 96 24 138 -1z m-326 -7 c-21 -10 -31 -21 -28 -30 3
-8 2 -12 -3 -9 -14 9 -21 -32 -21 -117 0 -69 2 -78 18 -75 19 4 19 2 21 102
l1 74 35 16 c19 9 35 21 35 26 0 6 5 10 10 10 21 0 9 -21 -25 -42 -34 -22 -35
-25 -36 -88 -1 -85 -9 -111 -37 -121 -14 -5 -21 -5 -17 0 3 5 1 11 -4 13 -12
4 -14 18 -12 119 1 77 4 89 26 113 13 14 34 26 47 26 20 0 19 -3 -10 -17z
m459 -54 c-14 -41 -14 -95 1 -122 12 -24 43 -53 61 -60 7 -2 9 -8 5 -12 -11
-12 -56 22 -78 58 -24 38 -26 94 -5 144 18 44 32 37 16 -8z m44 -39 c-5 -22
-1 -40 15 -65 22 -36 14 -48 -12 -17 -20 22 -29 61 -21 90 8 34 26 27 18 -8z
m99 -24 c31 -41 32 -46 6 -46 -11 0 -26 12 -35 30 -30 58 -12 69 29 16z m-174
-286 c0 -5 -5 -10 -11 -10 -5 0 -7 5 -4 10 3 6 8 10 11 10 2 0 4 -4 4 -10z
m-323 -342 c-3 -8 -6 -5 -6 6 -1 11 2 17 5 13 3 -3 4 -12 1 -19z m-759 -25
c-6 -7 -12 -13 -13 -13 -2 0 -5 6 -8 13 -3 7 3 13 14 13 13 0 15 -3 7 -13z
m-85 -78 c-3 -9 -8 -14 -10 -11 -3 3 -2 9 2 15 9 16 15 13 8 -4z m3760 -20
c-3 -9 -8 -14 -10 -11 -3 3 -2 9 2 15 9 16 15 13 8 -4z m-3758 -34 c3 -5 2
-12 -3 -15 -5 -3 -9 1 -9 9 0 17 3 19 12 6z m3556 -644 c-10 -9 -11 -8 -5 6 3
10 9 15 12 12 3 -3 0 -11 -7 -18z m-3447 -63 c3 -8 2 -12 -4 -9 -6 3 -10 10
-10 16 0 14 7 11 14 -7z m963 -460 c-3 -3 -12 -4 -19 -1 -8 3 -5 6 6 6 11 1
17 -2 13 -5z"/>
<path d="M3540 4150 c8 -5 20 -10 25 -10 6 0 3 5 -5 10 -8 5 -19 10 -25 10 -5
0 -3 -5 5 -10z"/>
<path d="M3580 4135 c0 -2 23 -16 50 -30 28 -14 50 -23 50 -20 0 2 -22 16 -50
30 -27 14 -50 23 -50 20z"/>
<path d="M3600 4020 c41 -21 80 -39 85 -39 6 0 -24 18 -65 39 -41 21 -79 39
-85 39 -5 0 24 -18 65 -39z"/>
<path d="M3561 4016 c2 -2 15 -9 29 -15 24 -11 24 -11 6 3 -16 13 -49 24 -35
12z"/>
<path d="M3530 4006 c0 -2 7 -7 16 -10 8 -3 12 -2 9 4 -6 10 -25 14 -25 6z"/>
<path d="M3609 3965 c23 -14 46 -25 50 -25 10 1 -73 50 -84 50 -5 0 10 -11 34
-25z"/>
<path d="M3545 3971 c3 -5 0 -11 -7 -13 -7 -3 -5 -7 6 -11 9 -4 15 -3 11 2 -3
5 0 11 7 13 7 3 5 7 -6 11 -9 4 -15 3 -11 -2z"/>
<path d="M3596 3945 c10 -8 23 -15 28 -15 6 0 1 7 -10 15 -10 8 -23 15 -28 15
-6 0 -1 -7 10 -15z"/>
<path d="M3597 3869 c7 -7 15 -10 18 -7 3 3 -2 9 -12 12 -14 6 -15 5 -6 -5z"/>
<path d="M3637 3849 c7 -7 15 -10 18 -7 3 3 -2 9 -12 12 -14 6 -15 5 -6 -5z"/>
<path d="M3885 3820 c3 -5 14 -10 23 -10 15 0 15 2 2 10 -20 13 -33 13 -25 0z"/>
<path d="M4070 3928 l0 -253 456 -230 c251 -126 460 -231 465 -233 5 -2 9 101
9 252 l0 256 -301 150 c-280 140 -340 165 -324 140 9 -14 -2 -12 -41 6 -30 14
-33 19 -22 33 11 14 11 14 -3 3 -22 -16 -64 -1 -64 24 0 12 -25 31 -80 61 -44
23 -83 43 -87 43 -5 0 -8 -114 -8 -252z m379 -75 c29 -20 48 -39 42 -41 -6 -2
-9 -8 -5 -13 7 -11 1 -11 -30 1 -18 7 -24 14 -20 27 5 14 4 15 -4 4 -6 -8 -17
-11 -27 -7 -15 5 -15 9 -4 24 13 15 12 16 -4 3 -20 -16 -30 -10 -32 19 -2 30
23 25 84 -17z m-119 -81 c8 -10 24 -24 35 -30 17 -10 14 -11 -20 -8 -42 4
-101 24 -75 26 11 0 10 4 -5 13 -11 7 -21 20 -21 29 -2 16 1 16 35 2 20 -8 43
-22 51 -32z m498 -58 c-7 -6 -197 89 -198 99 0 4 45 -16 101 -44 56 -27 99
-52 97 -55z m12 -35 c0 -9 -209 94 -210 103 0 3 47 -17 105 -45 58 -28 105
-54 105 -58z m0 -31 c0 -9 -209 95 -210 104 0 5 47 -16 105 -44 58 -29 105
-56 105 -60z m-5 -27 c-6 -6 -205 92 -205 101 0 5 47 -16 105 -44 57 -29 102
-54 100 -57z m0 -30 c-6 -6 -203 92 -204 101 -1 5 46 -16 104 -44 57 -29 102
-54 100 -57z m91 84 c45 -26 52 -40 46 -92 l-4 -32 -49 25 c-49 24 -49 25 -49
74 0 28 3 50 7 50 3 0 25 -11 49 -25z m-95 -113 c-11 -4 -157 69 -186 92 -11
9 28 -7 87 -36 60 -29 104 -54 99 -56z m-379 4 c25 -26 33 -46 18 -46 -5 0
-34 12 -65 27 -47 23 -55 31 -55 55 l0 28 39 -20 c22 -11 50 -31 63 -44z m273
-15 c-5 -4 -95 48 -95 54 0 3 22 -7 49 -22 27 -16 48 -30 46 -32z m42 19 c42
-22 71 -40 64 -40 -14 0 -151 68 -151 75 0 10 12 5 87 -35z m-85 -20 c43 -26
29 -26 -19 0 -21 11 -32 20 -26 20 7 0 27 -9 45 -20z m243 -12 c44 -22 45 -23
45 -70 0 -26 -3 -48 -6 -48 -4 0 -26 10 -50 22 -43 21 -44 23 -44 70 0 26 2
48 5 48 2 0 25 -10 50 -22z m-125 -13 c25 -13 38 -24 30 -24 -8 -1 -33 10 -55
24 -51 31 -34 32 25 0z m-120 0 c17 -9 30 -18 30 -21 0 -4 -59 23 -69 32 -10
9 13 3 39 -11z m125 -35 c17 -11 26 -20 22 -20 -11 0 -67 29 -67 35 0 10 16 4
45 -15z m-109 -6 c18 -14 18 -14 -6 -3 -31 14 -36 19 -24 19 6 0 19 -7 30 -16z
m-26 -20 c0 -2 -9 0 -20 6 -11 6 -20 13 -20 16 0 2 9 0 20 -6 11 -6 20 -13 20
-16z m114 -3 c-2 -3 -12 3 -22 13 -16 17 -16 18 5 5 12 -7 20 -15 17 -18z
m-23 -7 c17 -8 29 -18 26 -20 -3 -3 -20 4 -38 15 -40 25 -31 28 12 5z m67
-100 c-5 -5 -177 83 -193 98 -5 6 37 -13 94 -42 57 -28 101 -53 99 -56z m-87
80 c28 -14 49 -27 47 -30 -3 -2 -29 9 -59 26 -66 36 -57 40 12 4z m84 8 c-3
-3 -11 0 -18 7 -9 10 -8 11 6 5 10 -3 15 -9 12 -12z m5 -22 c8 -5 11 -10 5
-10 -5 0 -17 5 -25 10 -8 5 -10 10 -5 10 6 0 17 -5 25 -10z m107 -32 c27 -17
32 -25 35 -68 2 -31 -1 -49 -7 -46 -5 2 -9 8 -8 14 2 6 -4 9 -12 6 -11 -4 -13
-2 -9 9 3 10 -2 18 -17 22 -17 6 -19 9 -8 16 9 6 4 7 -16 3 -28 -7 -29 -6 -15
11 9 11 10 16 3 11 -9 -5 -13 2 -13 23 0 34 7 33 67 -1z m-112 2 c3 -6 -1 -7
-9 -4 -18 7 -21 14 -7 14 6 0 13 -4 16 -10z m95 -80 c0 -5 -2 -10 -4 -10 -3 0
-8 5 -11 10 -3 6 -1 10 4 10 6 0 11 -4 11 -10z"/>
<path d="M4300 3750 c8 -5 20 -10 25 -10 6 0 3 5 -5 10 -8 5 -19 10 -25 10 -5
0 -3 -5 5 -10z"/>
<path d="M5480 3560 c0 -5 5 -10 11 -10 5 0 7 5 4 10 -3 6 -8 10 -11 10 -2 0
-4 -4 -4 -10z"/>
<path d="M3851 3450 c-88 -44 -169 -80 -180 -80 -12 0 -73 25 -136 56 -64 31
-118 54 -122 51 -7 -8 235 -127 258 -127 20 0 335 156 344 170 3 6 4 10 1 10
-3 0 -77 -36 -165 -80z"/>
<path d="M5483 3480 c0 -30 2 -43 4 -27 2 15 2 39 0 55 -2 15 -4 2 -4 -28z"/>
<path d="M5340 3491 c0 -5 5 -13 10 -16 6 -3 10 -2 10 4 0 5 -4 13 -10 16 -5
3 -10 2 -10 -4z"/>
<path d="M5380 3466 c0 -7 72 -47 77 -43 2 3 -12 14 -32 26 -36 21 -45 24 -45
17z"/>
<path d="M3966 3394 l-109 -56 29 -17 c48 -28 93 -44 109 -37 9 3 13 2 10 -4
-3 -6 1 -7 9 -4 9 3 14 10 11 14 -6 10 27 23 73 28 7 1 11 6 7 11 -5 9 25 24
41 20 16 -4 44 13 38 22 -3 5 0 9 6 9 21 0 -2 20 -50 45 -27 14 -53 25 -57 24
-4 0 -57 -25 -117 -55z"/>
<path d="M5620 3330 c0 -5 5 -10 10 -10 6 0 10 5 10 10 0 6 -4 10 -10 10 -5 0
-10 -4 -10 -10z"/>
<path d="M3850 3315 c0 -7 81 -47 86 -42 2 2 -15 13 -37 25 -43 23 -49 25 -49
17z"/>
<path d="M3958 3263 c6 -2 18 -2 25 0 6 3 1 5 -13 5 -14 0 -19 -2 -12 -5z"/>
<path d="M5475 3260 c3 -5 11 -10 16 -10 6 0 7 5 4 10 -3 6 -11 10 -16 10 -6
0 -7 -4 -4 -10z"/>
<path d="M4058 3224 c-16 -8 -28 -17 -28 -19 0 -6 32 6 48 18 9 7 11 6 7 -6
-5 -11 3 -18 28 -26 40 -14 51 -30 31 -49 -8 -7 -14 -10 -14 -7 0 3 -9 1 -20
-5 -15 -8 -20 -8 -18 1 2 7 -6 15 -17 17 -11 2 -24 9 -28 16 -6 7 -7 4 -3 -6
8 -26 -13 -22 -24 5 -6 14 -9 16 -9 6 -1 -9 8 -24 19 -34 11 -10 20 -13 20 -7
0 7 7 12 16 12 13 0 14 -3 5 -14 -17 -20 11 -41 36 -27 25 14 83 38 111 46 12
3 22 10 22 15 0 7 -144 81 -153 80 -1 -1 -14 -8 -29 -16z"/>
<path d="M3595 3070 c-3 -5 -2 -10 3 -10 5 0 75 -35 156 -79 80 -43 149 -75
152 -70 3 5 -2 9 -11 9 -9 0 -14 3 -11 8 2 4 -35 27 -82 52 -48 25 -89 47 -92
50 -8 8 -94 50 -102 50 -4 0 -10 -4 -13 -10z"/>
<path d="M4680 3020 c-11 -7 -7 -10 17 -10 33 0 53 -15 31 -23 -7 -2 7 -13 32
-24 44 -19 44 -20 23 -32 -17 -9 -28 -9 -44 0 -17 9 -20 8 -13 -2 4 -7 -8 -1
-28 14 -19 15 -40 27 -46 27 -6 0 -12 5 -14 11 -2 7 -16 5 -41 -7 -35 -17 -49
-34 -27 -34 5 0 26 -11 46 -25 41 -28 59 -32 51 -11 -7 18 18 42 28 26 3 -5 1
-10 -4 -10 -6 0 -11 -9 -11 -20 0 -25 29 -38 40 -19 5 7 12 10 15 7 8 -8 125
50 125 61 0 7 -147 81 -160 81 -3 0 -12 -5 -20 -10z"/>
<path d="M4040 2978 c-19 -11 -46 -24 -60 -29 -24 -7 -24 -7 -2 -8 28 -1 87
23 97 39 13 20 0 20 -35 -2z"/>
<path d="M2625 2920 c-56 -23 -84 -84 -71 -155 8 -40 35 -69 77 -84 27 -9 29
-8 29 14 0 17 -6 25 -22 27 -33 4 -62 67 -48 103 13 33 34 55 54 55 10 0 16 9
16 25 0 27 -4 28 -35 15z"/>
<path d="M2628 2853 c-34 -40 -29 -91 12 -113 19 -10 20 -8 20 60 0 72 -6 83
-32 53z"/>
<path d="M4191 2834 c0 -11 3 -14 6 -6 3 7 2 16 -1 19 -3 4 -6 -2 -5 -13z"/>
<path d="M4910 2826 c0 -3 9 -10 20 -16 11 -6 20 -8 20 -6 0 3 -9 10 -20 16
-11 6 -20 8 -20 6z"/>
<path d="M4830 2810 c-8 -5 -10 -10 -5 -10 6 0 17 5 25 10 8 5 11 10 5 10 -5
0 -17 -5 -25 -10z"/>
<path d="M4141 2789 c-13 -11 -41 -22 -62 -25 -22 -4 -39 -10 -39 -15 0 -11
-3 -12 57 6 28 8 56 22 63 30 19 23 8 26 -19 4z"/>
<path d="M4768 2779 c-21 -11 -38 -22 -38 -24 0 -3 18 4 40 15 22 11 40 23 40
25 0 7 0 7 -42 -16z"/>
<path d="M3990 2748 c0 -4 7 -8 15 -8 8 0 15 4 15 8 0 5 -7 9 -15 9 -8 0 -15
-4 -15 -9z"/>
<path d="M4690 2740 c-8 -5 -10 -10 -5 -10 6 0 17 5 25 10 8 5 11 10 5 10 -5
0 -17 -5 -25 -10z"/>
<path d="M5060 2746 c0 -2 7 -7 16 -10 8 -3 12 -2 9 4 -6 10 -25 14 -25 6z"/>
<path d="M4598 2694 c-39 -19 -68 -41 -68 -49 0 -10 49 -39 135 -80 74 -36
139 -65 144 -65 21 0 361 175 361 185 0 6 -15 19 -32 29 l-33 18 30 -27 c17
-14 25 -24 18 -21 -6 3 -84 -30 -172 -74 -89 -44 -166 -80 -172 -80 -5 0 -41
16 -79 35 -38 19 -76 32 -85 29 -9 -4 -15 -1 -15 8 0 8 -19 23 -42 35 l-43 20
63 32 c34 17 62 33 62 36 0 7 3 8 -72 -31z"/>
<path d="M4721 2664 c-54 -31 -70 -45 -58 -50 10 -3 41 9 79 32 78 46 74 43
62 53 -5 6 -39 -8 -83 -35z"/>
<path d="M4980 2260 c8 -5 20 -10 25 -10 6 0 3 5 -5 10 -8 5 -19 10 -25 10 -5
0 -3 -5 5 -10z"/>
<path d="M4318 2223 c19 -4 22 -11 22 -49 0 -28 -4 -44 -12 -44 -8 0 -9 -3 -3
-8 6 -4 11 -24 13 -44 4 -38 3 -38 -30 -33 l-33 5 30 -10 30 -9 1 -310 c0
-272 -2 -311 -15 -314 -13 -4 -12 -5 2 -6 19 -1 25 -45 7 -56 -7 -4 -7 -12 0
-25 5 -10 10 -40 10 -66 0 -26 3 -44 7 -41 3 4 16 -4 27 -16 20 -22 86 -34 86
-17 0 12 49 30 67 24 11 -4 14 -3 7 3 -6 4 -12 46 -13 98 -1 82 1 91 21 108
21 17 21 18 2 8 -12 -6 -24 -8 -28 -4 -7 8 3 54 17 71 7 9 7 12 -2 10 -9 -2
-12 62 -12 274 0 152 1 280 2 285 1 4 -2 27 -6 50 -7 41 -11 44 -86 83 -43 22
-91 39 -106 39 -24 -2 -25 -2 -5 -6z"/>
<path d="M5060 2189 c0 -5 5 -7 10 -4 6 3 10 8 10 11 0 2 -4 4 -10 4 -5 0 -10
-5 -10 -11z"/>
<path d="M4850 2180 c-18 -12 -2 -12 25 0 13 6 15 9 5 9 -8 0 -22 -4 -30 -9z"/>
<path d="M5103 2172 c-9 -5 -6 -12 10 -21 19 -13 21 -12 10 1 -7 8 -10 18 -6
21 9 9 1 8 -14 -1z"/>
<path d="M3938 2163 c6 -2 18 -2 25 0 6 3 1 5 -13 5 -14 0 -19 -2 -12 -5z"/>
<path d="M3918 2148 c6 -6 18 -8 28 -6 14 3 12 5 -9 10 -19 3 -25 2 -19 -4z"/>
<path d="M4960 2141 c0 -5 7 -12 16 -15 14 -5 15 -4 4 9 -14 17 -20 19 -20 6z"/>
<path d="M2715 2131 c-6 -11 13 -26 22 -17 4 3 1 6 -6 6 -7 0 -9 5 -6 10 3 6
4 10 1 10 -3 0 -7 -4 -11 -9z"/>
<path d="M4268 2133 c7 -3 16 -2 19 1 4 3 -2 6 -13 5 -11 0 -14 -3 -6 -6z"/>
<path d="M5200 2137 c0 -2 15 -14 33 -27 20 -15 27 -17 18 -6 -13 16 -51 41
-51 33z"/>
<path d="M4188 2123 c7 -3 16 -2 19 1 4 3 -2 6 -13 5 -11 0 -14 -3 -6 -6z"/>
<path d="M4268 2113 c7 -3 16 -2 19 1 4 3 -2 6 -13 5 -11 0 -14 -3 -6 -6z"/>
<path d="M2684 2079 c-19 -22 -19 -22 4 -8 12 8 22 17 22 21 0 12 -6 9 -26
-13z"/>
<path d="M5205 2090 c-3 -6 1 -7 9 -4 18 7 21 14 7 14 -6 0 -13 -4 -16 -10z"/>
<path d="M4013 2083 c9 -2 25 -2 35 0 9 3 1 5 -18 5 -19 0 -27 -2 -17 -5z"/>
<path d="M5043 2075 c0 -8 4 -12 9 -9 5 3 19 -2 31 -13 20 -17 21 -17 8 0 -21
27 -48 39 -48 22z"/>
<path d="M5266 2073 c-4 -9 -1 -21 5 -27 9 -8 10 -7 4 3 -4 7 -2 16 5 21 8 5
8 10 2 14 -5 3 -13 -2 -16 -11z"/>
<path d="M2746 2063 c-6 -14 -5 -15 5 -6 7 7 10 15 7 18 -3 3 -9 -2 -12 -12z"/>
<path d="M2619 2051 c-18 -15 -21 -22 -13 -31 9 -9 14 -9 19 1 5 8 4 10 -3 5
-7 -4 -12 -3 -12 2 0 16 13 22 26 11 8 -7 14 -6 20 2 5 8 3 9 -6 4 -10 -6 -12
-4 -7 8 8 22 4 21 -24 -2z"/>
<path d="M4208 2063 c6 -2 18 -2 25 0 6 3 1 5 -13 5 -14 0 -19 -2 -12 -5z"/>
<path d="M5220 2066 c0 -2 8 -10 18 -17 15 -13 16 -12 3 4 -13 16 -21 21 -21
13z"/>
<path d="M3870 2048 c0 -9 5 -20 10 -23 13 -8 13 5 0 25 -8 13 -10 13 -10 -2z"/>
<path d="M5310 2035 c13 -14 26 -25 28 -25 3 0 -5 11 -18 25 -13 14 -26 25
-28 25 -3 0 5 -11 18 -25z"/>
<path d="M4544 2026 c11 -9 24 -16 30 -16 12 0 7 5 -24 19 -24 11 -24 11 -6
-3z"/>
<path d="M5114 2020 c0 -11 2 -17 5 -14 3 2 18 -8 35 -23 31 -29 18 -6 -19 34
-19 20 -21 20 -21 3z"/>
<path d="M2562 1987 c-8 -9 -6 -16 8 -25 12 -7 21 -8 25 -2 4 6 1 9 -6 8 -6
-2 -14 3 -17 11 -3 9 0 11 8 6 9 -5 11 -4 6 3 -9 15 -11 15 -24 -1z"/>
<path d="M3855 1991 c-3 -5 -2 -12 3 -15 5 -3 9 1 9 9 0 17 -3 19 -12 6z"/>
<path d="M4610 1986 c0 -2 8 -10 18 -17 15 -13 16 -12 3 4 -13 16 -21 21 -21
13z"/>
<path d="M5380 1960 c6 -11 13 -20 16 -20 2 0 0 9 -6 20 -6 11 -13 20 -16 20
-2 0 0 -9 6 -20z"/>
<path d="M4900 1966 c0 -2 8 -10 18 -17 15 -13 16 -12 3 4 -13 16 -21 21 -21
13z"/>
<path d="M4008 1953 c7 -3 16 -2 19 1 4 3 -2 6 -13 5 -11 0 -14 -3 -6 -6z"/>
<path d="M4058 1953 c7 -3 16 -2 19 1 4 3 -2 6 -13 5 -11 0 -14 -3 -6 -6z"/>
<path d="M4530 1950 c0 -5 5 -10 11 -10 5 0 7 5 4 10 -3 6 -8 10 -11 10 -2 0
-4 -4 -4 -10z"/>
<path d="M5335 1950 c-3 -5 1 -22 10 -37 9 -16 13 -19 9 -8 -4 11 -7 28 -8 38
0 20 -2 21 -11 7z"/>
<path d="M4556 1931 c-4 -5 -2 -12 3 -15 5 -4 12 -2 15 3 4 5 2 12 -3 15 -5 4
-12 2 -15 -3z"/>
<path d="M2556 1913 c-6 -14 -5 -15 5 -6 7 7 10 15 7 18 -3 3 -9 -2 -12 -12z"/>
<path d="M4188 1923 c7 -3 16 -2 19 1 4 3 -2 6 -13 5 -11 0 -14 -3 -6 -6z"/>
<path d="M4940 1921 c0 -6 4 -13 10 -16 6 -3 7 1 4 9 -7 18 -14 21 -14 7z"/>
<path d="M2656 1905 c-11 -8 -15 -15 -9 -15 6 0 16 7 23 15 16 19 11 19 -14 0z"/>
<path d="M4590 1916 c0 -2 8 -10 18 -17 15 -13 16 -12 3 4 -13 16 -21 21 -21
13z"/>
<path d="M2698 1903 c7 -3 16 -2 19 1 4 3 -2 6 -13 5 -11 0 -14 -3 -6 -6z"/>
<path d="M2783 1893 c9 -2 23 -2 30 0 6 3 -1 5 -18 5 -16 0 -22 -2 -12 -5z"/>
<path d="M4970 1881 c0 -5 5 -13 10 -16 6 -3 10 -2 10 4 0 5 -4 13 -10 16 -5
3 -10 2 -10 -4z"/>
<path d="M5230 1884 c0 -6 7 -19 16 -30 14 -18 14 -18 3 6 -14 31 -19 36 -19
24z"/>
<path d="M5420 1884 c0 -6 7 -19 16 -30 14 -18 14 -18 3 6 -14 31 -19 36 -19
24z"/>
<path d="M2586 1865 c-9 -26 -7 -32 5 -12 6 10 9 21 6 23 -2 3 -7 -2 -11 -11z"/>
<path d="M4806 1867 c3 -10 9 -15 12 -12 3 3 0 11 -7 18 -10 9 -11 8 -5 -6z"/>
<path d="M3440 1801 c0 -77 13 -97 57 -88 23 4 33 -1 55 -26 l28 -32 -61 -30
-60 -31 25 -14 c14 -7 26 -17 26 -21 0 -10 89 -59 108 -59 9 0 29 12 45 28 22
19 28 22 24 9 -4 -11 -3 -16 4 -12 5 4 21 0 34 -9 27 -18 60 -22 50 -6 -3 5
-1 19 5 30 10 18 5 33 -32 97 -43 75 -70 103 -138 140 -19 10 -61 36 -92 56
-31 20 -62 37 -68 37 -6 0 -10 -27 -10 -69z"/>
<path d="M2481 1834 c0 -11 3 -14 6 -6 3 7 2 16 -1 19 -3 4 -6 -2 -5 -13z"/>
<path d="M2471 1794 c0 -11 3 -14 6 -6 3 7 2 16 -1 19 -3 4 -6 -2 -5 -13z"/>
<path d="M3076 1795 c-3 -8 -1 -15 4 -15 6 0 10 7 10 15 0 8 -2 15 -4 15 -2 0
-6 -7 -10 -15z"/>
<path d="M5451 1794 c0 -11 3 -14 6 -6 3 7 2 16 -1 19 -3 4 -6 -2 -5 -13z"/>
<path d="M2958 1783 c6 -2 18 -2 25 0 6 3 1 5 -13 5 -14 0 -19 -2 -12 -5z"/>
<path d="M3230 1781 c0 -6 4 -13 10 -16 6 -3 7 1 4 9 -7 18 -14 21 -14 7z"/>
<path d="M5211 1774 c0 -11 3 -14 6 -6 3 7 2 16 -1 19 -3 4 -6 -2 -5 -13z"/>
<path d="M2561 1764 c0 -11 3 -14 6 -6 3 7 2 16 -1 19 -3 4 -6 -2 -5 -13z"/>
<path d="M3140 1771 c0 -7 -5 -9 -12 -5 -7 5 -8 3 -3 -5 5 -9 10 -10 18 -2 6
6 8 14 4 18 -4 3 -7 1 -7 -6z"/>
<path d="M2668 1753 c17 -2 47 -2 65 0 17 2 3 4 -33 4 -36 0 -50 -2 -32 -4z"/>
<path d="M5272 1735 c0 -16 2 -22 5 -12 2 9 2 23 0 30 -3 6 -5 -1 -5 -18z"/>
<path d="M5463 1720 c0 -25 2 -35 4 -22 2 12 2 32 0 45 -2 12 -4 2 -4 -23z"/>
<path d="M3221 1734 c0 -11 3 -14 6 -6 3 7 2 16 -1 19 -3 4 -6 -2 -5 -13z"/>
<path d="M2668 1733 c28 -2 76 -2 105 0 28 2 5 3 -53 3 -58 0 -81 -1 -52 -3z"/>
<path d="M4702 1720 c0 -14 2 -19 5 -12 2 6 2 18 0 25 -3 6 -5 1 -5 -13z"/>
<path d="M4792 1720 c0 -14 2 -19 5 -12 2 6 2 18 0 25 -3 6 -5 1 -5 -13z"/>
<path d="M3010 1681 c0 -11 -4 -23 -10 -26 -17 -10 -11 -68 10 -103 33 -54 60
-60 124 -27 30 15 65 38 77 51 l21 23 -101 50 c-55 28 -105 51 -111 51 -5 0
-10 -9 -10 -19z"/>
<path d="M5011 1684 c0 -11 3 -14 6 -6 3 7 2 16 -1 19 -3 4 -6 -2 -5 -13z"/>
<path d="M2773 1683 c9 -2 25 -2 35 0 9 3 1 5 -18 5 -19 0 -27 -2 -17 -5z"/>
<path d="M2835 1680 c3 -5 8 -10 11 -10 2 0 4 5 4 10 0 6 -5 10 -11 10 -5 0
-7 -4 -4 -10z"/>
<path d="M5390 1669 c0 -5 5 -7 10 -4 6 3 10 8 10 11 0 2 -4 4 -10 4 -5 0 -10
-5 -10 -11z"/>
<path d="M2511 1654 c0 -11 3 -14 6 -6 3 7 2 16 -1 19 -3 4 -6 -2 -5 -13z"/>
<path d="M5451 1644 c0 -11 3 -14 6 -6 3 7 2 16 -1 19 -3 4 -6 -2 -5 -13z"/>
<path d="M2673 1643 c9 -2 25 -2 35 0 9 3 1 5 -18 5 -19 0 -27 -2 -17 -5z"/>
<path d="M2748 1643 c7 -3 16 -2 19 1 4 3 -2 6 -13 5 -11 0 -14 -3 -6 -6z"/>
<path d="M2808 1633 c7 -3 16 -2 19 1 4 3 -2 6 -13 5 -11 0 -14 -3 -6 -6z"/>
<path d="M2673 1623 c9 -2 23 -2 30 0 6 3 -1 5 -18 5 -16 0 -22 -2 -12 -5z"/>
<path d="M4982 1593 c-6 -20 -7 -32 -2 -27 10 10 25 64 18 64 -3 0 -10 -16
-16 -37z"/>
<path d="M4653 1603 c4 -3 -1 -16 -10 -27 -18 -21 -18 -21 4 -2 20 16 23 36 6
36 -4 0 -3 -3 0 -7z"/>
<path d="M4811 1594 c0 -11 3 -14 6 -6 3 7 2 16 -1 19 -3 4 -6 -2 -5 -13z"/>
<path d="M5240 1579 c-7 -11 -10 -23 -7 -25 2 -2 9 7 15 21 14 30 7 33 -8 4z"/>
<path d="M5435 1589 c-4 -6 -5 -12 -2 -15 2 -3 7 2 10 11 7 17 1 20 -8 4z"/>
<path d="M2586 1577 c3 -10 9 -15 12 -12 3 3 0 11 -7 18 -10 9 -11 8 -5 -6z"/>
<path d="M2678 1583 c7 -3 16 -2 19 1 4 3 -2 6 -13 5 -11 0 -14 -3 -6 -6z"/>
<path d="M2606 1553 c-6 -14 -5 -15 5 -6 7 7 10 15 7 18 -3 3 -9 -2 -12 -12z"/>
<path d="M2875 1561 c-3 -5 -2 -12 3 -15 5 -3 9 1 9 9 0 17 -3 19 -12 6z"/>
<path d="M4605 1550 c-3 -5 -1 -10 4 -10 6 0 11 5 11 10 0 6 -2 10 -4 10 -3 0
-8 -4 -11 -10z"/>
<path d="M4942 1530 c-18 -29 -15 -38 4 -12 9 13 14 25 12 27 -2 2 -9 -5 -16
-15z"/>
<path d="M5342 1524 c-9 -18 -9 -30 -1 -42 9 -15 10 -15 5 1 -3 10 -1 28 5 39
6 11 9 22 6 24 -2 2 -9 -7 -15 -22z"/>
<path d="M4695 1529 c-4 -6 -5 -12 -2 -15 2 -3 7 2 10 11 7 17 1 20 -8 4z"/>
<path d="M2560 1521 c0 -6 4 -13 10 -16 6 -3 7 1 4 9 -7 18 -14 21 -14 7z"/>
<path d="M4746 1515 c-11 -8 -15 -15 -9 -15 6 0 16 7 23 15 16 19 11 19 -14 0z"/>
<path d="M3233 1438 c-65 -44 -125 -85 -133 -91 -8 -7 -35 -25 -60 -41 -43
-28 -45 -28 -73 -13 -38 22 -57 21 -57 -2 0 -11 -6 -22 -12 -24 -10 -4 -10 -6
0 -6 7 -1 12 -15 12 -35 0 -31 4 -35 69 -65 63 -29 101 -33 101 -10 0 5 7 9
15 9 8 0 19 16 25 40 6 21 15 42 20 45 6 4 4 18 -6 36 -15 30 -15 30 15 42 17
6 31 15 31 20 0 5 10 6 23 3 12 -3 16 -3 9 0 -8 4 16 26 65 58 43 29 80 50 83
46 3 -4 37 -28 75 -53 39 -26 81 -56 95 -67 14 -11 28 -20 33 -20 4 0 7 -18 7
-39 0 -72 39 -131 88 -131 35 0 114 30 129 50 8 9 12 41 11 77 l-1 62 -48 -27
-49 -26 -45 32 c-25 18 -48 32 -50 32 -3 0 -13 7 -22 15 -10 8 -66 48 -125 88
l-106 75 -119 -80z"/>
<path d="M4560 1510 c-9 -6 -10 -10 -3 -10 6 0 15 5 18 10 8 12 4 12 -15 0z"/>
<path d="M3790 1500 c0 -5 5 -10 10 -10 6 0 10 5 10 10 0 6 -4 10 -10 10 -5 0
-10 -4 -10 -10z"/>
<path d="M5386 1493 c-6 -14 -5 -15 5 -6 7 7 10 15 7 18 -3 3 -9 -2 -12 -12z"/>
<path d="M3838 1493 c7 -3 16 -2 19 1 4 3 -2 6 -13 5 -11 0 -14 -3 -6 -6z"/>
<path d="M4900 1478 c-12 -22 -12 -22 6 -6 10 10 15 20 12 24 -4 3 -12 -5 -18
-18z"/>
<path d="M2540 1486 c0 -2 8 -10 18 -17 15 -13 16 -12 3 4 -13 16 -21 21 -21
13z"/>
<path d="M2788 1483 c7 -3 16 -2 19 1 4 3 -2 6 -13 5 -11 0 -14 -3 -6 -6z"/>
<path d="M2650 1471 c0 -5 7 -15 17 -22 15 -13 15 -12 4 9 -12 23 -21 28 -21
13z"/>
<path d="M2738 1473 c7 -3 16 -2 19 1 4 3 -2 6 -13 5 -11 0 -14 -3 -6 -6z"/>
<path d="M4621 1466 c-9 -11 -8 -15 4 -20 9 -3 13 -11 9 -17 -5 -8 -3 -9 5 -4
9 5 9 11 3 17 -6 6 -8 17 -5 24 7 18 -1 18 -16 0z"/>
<path d="M5159 1463 c-13 -16 -12 -17 4 -4 16 13 21 21 13 21 -2 0 -10 -8 -17
-17z"/>
<path d="M2606 1447 c3 -10 9 -15 12 -12 3 3 0 11 -7 18 -10 9 -11 8 -5 -6z"/>
<path d="M2690 1456 c0 -2 7 -7 16 -10 8 -3 12 -2 9 4 -6 10 -25 14 -25 6z"/>
<path d="M5113 1423 c0 -10 4 -10 16 -1 9 7 18 13 20 15 2 1 -5 1 -16 0 -11 0
-20 -7 -20 -14z"/>
<path d="M2695 1421 c-3 -5 -2 -12 3 -15 5 -3 9 1 9 9 0 17 -3 19 -12 6z"/>
<path d="M2980 1410 c-9 -6 -10 -10 -3 -10 6 0 15 5 18 10 8 12 4 12 -15 0z"/>
<path d="M4590 1410 c-9 -6 -10 -10 -3 -10 6 0 15 5 18 10 8 12 4 12 -15 0z"/>
<path d="M4815 1409 c-11 -17 1 -21 15 -4 8 9 8 15 2 15 -6 0 -14 -5 -17 -11z"/>
<path d="M2790 1400 c-8 -5 -10 -10 -5 -10 6 0 17 5 25 10 8 5 11 10 5 10 -5
0 -17 -5 -25 -10z"/>
<path d="M5310 1399 c0 -5 5 -7 10 -4 6 3 10 8 10 11 0 2 -4 4 -10 4 -5 0 -10
-5 -10 -11z"/>
<path d="M2885 1390 c-13 -6 -15 -9 -5 -9 8 0 22 4 30 9 18 12 2 12 -25 0z"/>
<path d="M4278 1393 c7 -3 16 -2 19 1 4 3 -2 6 -13 5 -11 0 -14 -3 -6 -6z"/>
<path d="M4540 1390 c-9 -6 -10 -10 -3 -10 6 0 15 5 18 10 8 12 4 12 -15 0z"/>
<path d="M5284 1392 c4 -7 2 -21 -5 -30 -12 -15 -11 -15 6 0 16 15 17 20 6 30
-11 11 -13 10 -7 0z"/>
<path d="M2923 1380 c-13 -5 -23 -11 -23 -14 0 -7 40 6 46 15 6 10 6 10 -23
-1z"/>
<path d="M4218 1383 c7 -3 16 -2 19 1 4 3 -2 6 -13 5 -11 0 -14 -3 -6 -6z"/>
<path d="M4765 1380 c-3 -6 1 -7 9 -4 18 7 21 14 7 14 -6 0 -13 -4 -16 -10z"/>
<path d="M5010 1380 c8 -5 20 -10 25 -10 6 0 3 5 -5 10 -8 5 -19 10 -25 10 -5
0 -3 -5 5 -10z"/>
<path d="M5059 1373 c-13 -15 -12 -15 9 -4 23 12 28 21 13 21 -5 0 -15 -7 -22
-17z"/>
<path d="M4875 1370 c-3 -6 1 -7 9 -4 18 7 21 14 7 14 -6 0 -13 -4 -16 -10z"/>
<path d="M3963 1353 c9 -2 23 -2 30 0 6 3 -1 5 -18 5 -16 0 -22 -2 -12 -5z"/>
<path d="M4705 1340 c-16 -7 -17 -9 -3 -9 9 -1 20 4 23 9 7 11 7 11 -20 0z"/>
<path d="M4830 1340 c8 -5 20 -10 25 -10 6 0 3 5 -5 10 -8 5 -19 10 -25 10 -5
0 -3 -5 5 -10z"/>
<path d="M5240 1339 c0 -5 5 -7 10 -4 6 3 10 8 10 11 0 2 -4 4 -10 4 -5 0 -10
-5 -10 -11z"/>
<path d="M2840 1329 c0 -5 5 -7 10 -4 6 3 10 8 10 11 0 2 -4 4 -10 4 -5 0 -10
-5 -10 -11z"/>
<path d="M4250 1330 c-20 -6 -21 -8 -5 -8 11 0 29 3 40 8 25 11 -1 11 -35 0z"/>
<path d="M2885 1320 c-3 -5 -2 -10 4 -10 5 0 13 5 16 10 3 6 2 10 -4 10 -5 0
-13 -4 -16 -10z"/>
<path d="M4640 1315 c-14 -8 -19 -14 -10 -14 8 0 24 6 34 14 25 19 9 19 -24 0z"/>
<path d="M2826 1306 c10 -8 21 -12 24 -10 5 6 -21 24 -34 24 -6 0 -1 -6 10
-14z"/>
<path d="M4298 1313 c7 -3 16 -2 19 1 4 3 -2 6 -13 5 -11 0 -14 -3 -6 -6z"/>
<path d="M4698 1303 c7 -3 16 -2 19 1 4 3 -2 6 -13 5 -11 0 -14 -3 -6 -6z"/>
<path d="M4672 1289 c3 -8 20 -22 39 -32 19 -10 25 -12 15 -5 -11 7 -28 21
-39 32 -12 11 -18 13 -15 5z"/>
<path d="M4730 1294 c0 -2 10 -8 21 -15 13 -6 19 -7 15 -1 -3 6 0 12 6 15 7 2
1 4 -14 4 -16 0 -28 -1 -28 -3z"/>
<path d="M5104 1284 c-18 -14 -18 -15 4 -4 12 6 22 13 22 15 0 8 -5 6 -26 -11z"/>
<path d="M3152 1276 c7 -8 15 -12 17 -11 5 6 -10 25 -20 25 -5 0 -4 -6 3 -14z"/>
<path d="M5159 1273 c-13 -16 -12 -17 4 -4 9 7 17 15 17 17 0 8 -8 3 -21 -13z"/>
<path d="M2784 1265 c10 -8 25 -11 34 -8 11 5 13 3 7 -7 -6 -9 -4 -11 4 -5 18
10 0 26 -35 30 -25 2 -26 1 -10 -10z"/>
<path d="M4821 1276 c2 -2 15 -9 29 -15 24 -11 24 -11 6 3 -16 13 -49 24 -35
12z"/>
<path d="M3811 1254 c0 -11 3 -14 6 -6 3 7 2 16 -1 19 -3 4 -6 -2 -5 -13z"/>
<path d="M3220 1250 c-8 -5 -10 -10 -5 -10 6 0 17 5 25 10 8 5 11 10 5 10 -5
0 -17 -5 -25 -10z"/>
<path d="M4820 1251 c0 -6 4 -13 10 -16 6 -3 7 1 4 9 -7 18 -14 21 -14 7z"/>
<path d="M3320 1236 c0 -2 8 -10 18 -17 15 -13 16 -12 3 4 -13 16 -21 21 -21
13z"/>
<path d="M4585 1220 c10 -11 20 -18 23 -16 5 6 -23 36 -34 36 -4 0 1 -9 11
-20z"/>
<path d="M5074 1224 c-18 -14 -18 -15 4 -4 12 6 22 13 22 15 0 8 -5 6 -26 -11z"/>
<path d="M2886 1217 c3 -10 9 -15 12 -12 3 3 0 11 -7 18 -10 9 -11 8 -5 -6z"/>
<path d="M3143 1205 c-10 -8 -13 -15 -6 -15 6 0 14 4 18 10 3 5 12 7 20 3 8
-3 15 -3 15 0 0 13 -30 14 -47 2z"/>
<path d="M3295 1210 c-3 -5 -1 -10 4 -10 6 0 11 5 11 10 0 6 -2 10 -4 10 -3 0
-8 -4 -11 -10z"/>
<path d="M4656 1207 c3 -10 9 -15 12 -12 3 3 0 11 -7 18 -10 9 -11 8 -5 -6z"/>
<path d="M3285 1180 c10 -11 20 -20 23 -20 3 0 -3 9 -13 20 -10 11 -20 20 -23
20 -3 0 3 -9 13 -20z"/>
<path d="M4245 1189 c-3 -4 2 -6 10 -5 21 3 28 13 10 13 -9 0 -18 -4 -20 -8z"/>
<path d="M4930 1190 c-8 -5 -10 -10 -5 -10 6 0 17 5 25 10 8 5 11 10 5 10 -5
0 -17 -5 -25 -10z"/>
<path d="M4995 1190 c-13 -6 -15 -9 -5 -9 8 0 22 4 30 9 18 12 2 12 -25 0z"/>
<path d="M3235 1170 c-3 -5 -1 -10 4 -10 6 0 11 5 11 10 0 6 -2 10 -4 10 -3 0
-8 -4 -11 -10z"/>
<path d="M3365 1170 c-3 -6 1 -7 9 -4 18 7 21 14 7 14 -6 0 -13 -4 -16 -10z"/>
<path d="M3480 1165 c-7 -8 -9 -15 -6 -15 4 0 14 7 22 15 9 8 11 15 6 15 -5 0
-15 -7 -22 -15z"/>
<path d="M4330 1171 c0 -6 4 -13 10 -16 6 -3 7 1 4 9 -7 18 -14 21 -14 7z"/>
<path d="M4865 1160 c-13 -6 -15 -9 -5 -9 8 0 22 4 30 9 18 12 2 12 -25 0z"/>
<path d="M4415 1150 c3 -5 8 -10 11 -10 2 0 4 5 4 10 0 6 -5 10 -11 10 -5 0
-7 -4 -4 -10z"/>
<path d="M3892 1130 c0 -14 2 -19 5 -12 2 6 2 18 0 25 -3 6 -5 1 -5 -13z"/>
<path d="M4349 1132 c-13 -15 -12 -16 3 -4 13 10 17 10 21 0 4 -9 6 -9 6 -1 2
20 -16 24 -30 5z"/>
<path d="M4548 1143 c7 -3 16 -2 19 1 4 3 -2 6 -13 5 -11 0 -14 -3 -6 -6z"/>
<path d="M3215 1130 c-3 -5 -1 -10 4 -10 6 0 11 5 11 10 0 6 -2 10 -4 10 -3 0
-8 -4 -11 -10z"/>
<path d="M4485 1130 c3 -5 8 -10 11 -10 2 0 4 5 4 10 0 6 -5 10 -11 10 -5 0
-7 -4 -4 -10z"/>
<path d="M3100 1120 c0 -5 10 -10 23 -10 18 0 19 2 7 10 -19 13 -30 13 -30 0z"/>
<path d="M3383 1120 c2 -9 17 -16 38 -16 31 -2 31 -1 4 3 -16 3 -34 10 -38 16
-6 8 -7 7 -4 -3z"/>
<path d="M4051 1114 c0 -11 3 -14 6 -6 3 7 2 16 -1 19 -3 4 -6 -2 -5 -13z"/>
<path d="M4440 1116 c7 -7 13 -7 20 0 6 6 3 10 -10 10 -13 0 -16 -4 -10 -10z"/>
<path d="M3717 1100 c-13 -15 -14 -20 -3 -20 7 0 16 9 19 20 3 11 4 20 3 20
-1 0 -9 -9 -19 -20z"/>
<path d="M3150 1100 c0 -5 5 -10 10 -10 6 0 10 5 10 10 0 6 -4 10 -10 10 -5 0
-10 -4 -10 -10z"/>
<path d="M3278 1103 c7 -3 16 -2 19 1 4 3 -2 6 -13 5 -11 0 -14 -3 -6 -6z"/>
<path d="M3353 1095 c0 -8 4 -12 9 -9 5 3 6 10 3 15 -9 13 -12 11 -12 -6z"/>
<path d="M3318 1093 c7 -3 16 -2 19 1 4 3 -2 6 -13 5 -11 0 -14 -3 -6 -6z"/>
<path d="M3227 1079 c7 -7 15 -10 18 -7 3 3 -2 9 -12 12 -14 6 -15 5 -6 -5z"/>
<path d="M3390 1080 c8 -5 20 -10 25 -10 6 0 3 5 -5 10 -8 5 -19 10 -25 10 -5
0 -3 -5 5 -10z"/>
<path d="M3438 1083 c7 -3 16 -2 19 1 4 3 -2 6 -13 5 -11 0 -14 -3 -6 -6z"/>
<path d="M3888 1073 c7 -3 16 -2 19 1 4 3 -2 6 -13 5 -11 0 -14 -3 -6 -6z"/>
<path d="M3468 1063 c7 -3 16 -2 19 1 4 3 -2 6 -13 5 -11 0 -14 -3 -6 -6z"/>
<path d="M4668 1063 c7 -3 16 -2 19 1 4 3 -2 6 -13 5 -11 0 -14 -3 -6 -6z"/>
<path d="M3301 1056 c2 -2 18 -6 34 -10 22 -5 26 -4 15 4 -14 9 -59 15 -49 6z"/>
<path d="M4546 1045 c-20 -15 -20 -15 0 -15 12 0 21 7 21 15 0 8 -1 15 -1 15
-1 0 -10 -7 -20 -15z"/>
<path d="M3380 1041 c8 -5 38 -11 65 -14 31 -4 40 -3 25 2 -39 12 -107 21 -90
12z"/>
<path d="M4588 1043 c7 -3 16 -2 19 1 4 3 -2 6 -13 5 -11 0 -14 -3 -6 -6z"/>
<path d="M4485 1030 c-3 -5 -2 -10 4 -10 5 0 13 5 16 10 3 6 2 10 -4 10 -5 0
-13 -4 -16 -10z"/>
<path d="M4438 1023 c7 -3 16 -2 19 1 4 3 -2 6 -13 5 -11 0 -14 -3 -6 -6z"/>
<path d="M3508 1013 c6 -2 18 -2 25 0 6 3 1 5 -13 5 -14 0 -19 -2 -12 -5z"/>
<path d="M3568 1003 c7 -3 16 -2 19 1 4 3 -2 6 -13 5 -11 0 -14 -3 -6 -6z"/>
<path d="M3620 1000 c8 -5 26 -9 40 -9 l25 1 -25 8 c-14 4 -32 8 -40 9 -13 1
-13 0 0 -9z"/>
<path d="M4348 1003 c7 -3 16 -2 19 1 4 3 -2 6 -13 5 -11 0 -14 -3 -6 -6z"/>
<path d="M3750 988 c0 -5 54 -8 119 -8 66 0 128 -3 138 -7 10 -3 15 -2 10 3
-10 11 -267 22 -267 12z"/>
<path d="M4083 983 c20 -2 54 -2 75 0 20 2 3 4 -38 4 -41 0 -58 -2 -37 -4z"/>
</g>
</svg>
